<?xml version="1.0" standalone="no"?><!DOCTYPE svg PUBLIC "-//W3C//DTD SVG 1.1//EN" "http://www.w3.org/Graphics/SVG/1.1/DTD/svg11.dtd"><svg t="1782474718959" class="icon" viewBox="0 0 1042 1024" version="1.1" xmlns="http://www.w3.org/2000/svg" p-id="5397" xmlns:xlink="http://www.w3.org/1999/xlink" width="203.515625" height="200"><path d="M777.142857 950.857143c-3.657143 0-7.314286 0-9.142857-1.828572L517.485714 877.714286l-250.514285 71.314285c-10.971429 3.657143-21.942857 1.828571-31.085715-5.485714s-14.628571-16.457143-14.628571-27.428571l-9.142857-261.485715-144.457143-217.6c-5.485714-9.142857-7.314286-20.114286-3.657143-31.085714 3.657143-10.971429 10.971429-18.285714 21.942857-23.771428L329.142857 292.571429l160.914286-204.8c14.628571-18.285714 43.885714-18.285714 58.514286 0L709.485714 292.571429l243.2 89.6c10.971429 3.657143 18.285714 12.8 21.942857 23.771428 3.657143 10.971429 1.828571 21.942857-3.657142 31.085714l-144.457143 217.6-9.142857 261.485715c0 10.971429-5.485714 21.942857-14.628572 27.428571-9.142857 5.485714-16.457143 7.314286-25.6 7.314286z m-259.657143-148.114286c3.657143 0 7.314286 0 9.142857 1.828572l215.771429 62.171428 9.142857-224.914286c0-7.314286 1.828571-12.8 5.485714-18.285714l124.342858-186.514286-210.285715-76.8c-5.485714-1.828571-12.8-7.314286-16.457143-10.971428l-138.971428-177.371429-138.971429 177.371429c-3.657143 5.485714-9.142857 9.142857-16.457143 10.971428L149.942857 437.028571 274.285714 623.542857c3.657143 5.485714 5.485714 12.8 5.485715 18.285714l9.142857 224.914286L504.685714 804.571429c7.314286 0 9.142857-1.828571 12.8-1.828572z" p-id="5398"></path></svg>